<?xml version="1.0" encoding="utf-8"?>
<!-- Generator: Adobe Illustrator 21.0.2, SVG Export Plug-In . SVG Version: 6.00 Build 0)  -->
<svg version="1.1" id="Layer_1" xmlns="http://www.w3.org/2000/svg" xmlns:xlink="http://www.w3.org/1999/xlink" x="0px" y="0px"
	 width="239px" height="28px" viewBox="0 0 239 28" style="enable-background:new 0 0 239 28;" xml:space="preserve">
<style type="text/css">
	.st0{fill:#FFFFFF;}
</style>
<rect x="111" y="9" class="st0" width="2" height="2"/>
<rect x="1" y="1" class="st0" width="2" height="2"/>
<rect x="5" y="1" class="st0" width="2" height="2"/>
<rect x="9" y="1" class="st0" width="2" height="2"/>
<rect x="13" y="1" class="st0" width="2" height="2"/>
<rect x="17" y="1" class="st0" width="2" height="2"/>
<rect x="1" y="25" class="st0" width="2" height="2"/>
<rect x="5" y="25" class="st0" width="2" height="2"/>
<rect x="9" y="25" class="st0" width="2" height="2"/>
<rect x="13" y="25" class="st0" width="2" height="2"/>
<rect x="17" y="25" class="st0" width="2" height="2"/>
<rect x="1" y="13" class="st0" width="2" height="2"/>
<rect x="1" y="9" class="st0" width="2" height="2"/>
<rect x="1" y="5" class="st0" width="2" height="2"/>
<rect x="1" y="21" class="st0" width="2" height="2"/>
<rect x="1" y="17" class="st0" width="2" height="2"/>
<rect x="25" y="1" class="st0" width="2" height="2"/>
<rect x="25" y="25" class="st0" width="2" height="2"/>
<rect x="25" y="13" class="st0" width="2" height="2"/>
<rect x="25" y="9" class="st0" width="2" height="2"/>
<rect x="25" y="5" class="st0" width="2" height="2"/>
<rect x="25" y="21" class="st0" width="2" height="2"/>
<rect x="25" y="17" class="st0" width="2" height="2"/>
<rect x="5" y="13" class="st0" width="2" height="2"/>
<rect x="9" y="13" class="st0" width="2" height="2"/>
<rect x="13" y="13" class="st0" width="2" height="2"/>
<rect x="169" y="1" class="st0" width="2" height="2"/>
<rect x="173" y="1" class="st0" width="2" height="2"/>
<rect x="177" y="1" class="st0" width="2" height="2"/>
<rect x="181" y="1" class="st0" width="2" height="2"/>
<rect x="185" y="5" class="st0" width="2" height="2"/>
<rect x="185" y="9" class="st0" width="2" height="2"/>
<rect x="169" y="25" class="st0" width="2" height="2"/>
<rect x="173" y="25" class="st0" width="2" height="2"/>
<rect x="177" y="25" class="st0" width="2" height="2"/>
<rect x="181" y="25" class="st0" width="2" height="2"/>
<rect x="185" y="17" class="st0" width="2" height="2"/>
<rect x="185" y="21" class="st0" width="2" height="2"/>
<rect x="169" y="13" class="st0" width="2" height="2"/>
<rect x="169" y="9" class="st0" width="2" height="2"/>
<rect x="169" y="5" class="st0" width="2" height="2"/>
<rect x="169" y="21" class="st0" width="2" height="2"/>
<rect x="169" y="17" class="st0" width="2" height="2"/>
<rect x="173" y="13" class="st0" width="2" height="2"/>
<rect x="177" y="13" class="st0" width="2" height="2"/>
<rect x="181" y="13" class="st0" width="2" height="2"/>
<rect x="38" y="9" class="st0" width="2" height="2"/>
<rect x="42" y="9" class="st0" width="2" height="2"/>
<rect x="46" y="9" class="st0" width="2" height="2"/>
<rect x="50" y="13" class="st0" width="2" height="2"/>
<rect x="38" y="25" class="st0" width="2" height="2"/>
<rect x="42" y="25" class="st0" width="2" height="2"/>
<rect x="46" y="25" class="st0" width="2" height="2"/>
<rect x="50" y="25" class="st0" width="2" height="2"/>
<rect x="34" y="13" class="st0" width="2" height="2"/>
<rect x="34" y="21" class="st0" width="2" height="2"/>
<rect x="34" y="17" class="st0" width="2" height="2"/>
<rect x="38" y="17" class="st0" width="2" height="2"/>
<rect x="42" y="17" class="st0" width="2" height="2"/>
<rect x="46" y="17" class="st0" width="2" height="2"/>
<rect x="87" y="9" class="st0" width="2" height="2"/>
<rect x="91" y="9" class="st0" width="2" height="2"/>
<rect x="83" y="5" class="st0" width="2" height="2"/>
<rect x="83" y="9" class="st0" width="2" height="2"/>
<rect x="87" y="25" class="st0" width="2" height="2"/>
<rect x="91" y="25" class="st0" width="2" height="2"/>
<rect x="79" y="9" class="st0" width="2" height="2"/>
<rect x="83" y="13" class="st0" width="2" height="2"/>
<rect x="83" y="21" class="st0" width="2" height="2"/>
<rect x="83" y="17" class="st0" width="2" height="2"/>
<rect x="103" y="13" class="st0" width="2" height="2"/>
<rect x="107" y="9" class="st0" width="2" height="2"/>
<rect x="99" y="9" class="st0" width="2" height="2"/>
<rect x="99" y="25" class="st0" width="2" height="2"/>
<rect x="99" y="13" class="st0" width="2" height="2"/>
<rect x="99" y="21" class="st0" width="2" height="2"/>
<rect x="99" y="17" class="st0" width="2" height="2"/>
<rect x="62" y="9" class="st0" width="2" height="2"/>
<rect x="66" y="9" class="st0" width="2" height="2"/>
<rect x="70" y="9" class="st0" width="2" height="2"/>
<rect x="62" y="25" class="st0" width="2" height="2"/>
<rect x="66" y="25" class="st0" width="2" height="2"/>
<rect x="70" y="25" class="st0" width="2" height="2"/>
<rect x="58" y="13" class="st0" width="2" height="2"/>
<rect x="58" y="21" class="st0" width="2" height="2"/>
<rect x="58" y="17" class="st0" width="2" height="2"/>
<rect x="124" y="9" class="st0" width="2" height="2"/>
<rect x="128" y="9" class="st0" width="2" height="2"/>
<rect x="132" y="9" class="st0" width="2" height="2"/>
<rect x="124" y="25" class="st0" width="2" height="2"/>
<rect x="128" y="25" class="st0" width="2" height="2"/>
<rect x="132" y="25" class="st0" width="2" height="2"/>
<rect x="120" y="13" class="st0" width="2" height="2"/>
<rect x="120" y="21" class="st0" width="2" height="2"/>
<rect x="120" y="17" class="st0" width="2" height="2"/>
<rect x="136" y="13" class="st0" width="2" height="2"/>
<rect x="136" y="21" class="st0" width="2" height="2"/>
<rect x="136" y="17" class="st0" width="2" height="2"/>
<rect x="199" y="9" class="st0" width="2" height="2"/>
<rect x="203" y="9" class="st0" width="2" height="2"/>
<rect x="207" y="9" class="st0" width="2" height="2"/>
<rect x="199" y="25" class="st0" width="2" height="2"/>
<rect x="203" y="25" class="st0" width="2" height="2"/>
<rect x="207" y="25" class="st0" width="2" height="2"/>
<rect x="195" y="13" class="st0" width="2" height="2"/>
<rect x="195" y="21" class="st0" width="2" height="2"/>
<rect x="195" y="17" class="st0" width="2" height="2"/>
<rect x="211" y="13" class="st0" width="2" height="2"/>
<rect x="211" y="21" class="st0" width="2" height="2"/>
<rect x="211" y="17" class="st0" width="2" height="2"/>
<rect x="220" y="9" class="st0" width="2" height="2"/>
<rect x="228" y="17" class="st0" width="2" height="2"/>
<rect x="236" y="9" class="st0" width="2" height="2"/>
<rect x="220" y="25" class="st0" width="2" height="2"/>
<rect x="236" y="25" class="st0" width="2" height="2"/>
<rect x="224" y="13" class="st0" width="2" height="2"/>
<rect x="224" y="21" class="st0" width="2" height="2"/>
<rect x="232" y="21" class="st0" width="2" height="2"/>
<rect x="232" y="13" class="st0" width="2" height="2"/>
<rect x="149" y="9" class="st0" width="2" height="2"/>
<rect x="145" y="9" class="st0" width="2" height="2"/>
<rect x="153" y="9" class="st0" width="2" height="2"/>
<rect x="157" y="9" class="st0" width="2" height="2"/>
<rect x="145" y="25" class="st0" width="2" height="2"/>
<rect x="161" y="25" class="st0" width="2" height="2"/>
<rect x="145" y="13" class="st0" width="2" height="2"/>
<rect x="145" y="21" class="st0" width="2" height="2"/>
<rect x="145" y="17" class="st0" width="2" height="2"/>
<rect x="161" y="13" class="st0" width="2" height="2"/>
<rect x="161" y="21" class="st0" width="2" height="2"/>
<rect x="161" y="17" class="st0" width="2" height="2"/>
</svg>
